<?xml version="1.0" encoding="UTF-8"?>
<svg id="cards" xmlns="http://www.w3.org/2000/svg" xmlns:xlink="http://www.w3.org/1999/xlink" viewBox="0 0 496.32 424.5">
  <defs>
    <style>
      .cls-1 {
        fill: #7ea3d6;
      }

      .cls-1, .cls-2, .cls-3, .cls-4, .cls-5, .cls-6, .cls-7, .cls-8, .cls-9, .cls-10, .cls-11 {
        stroke-width: 0px;
      }

      .cls-2 {
        fill: #d0daf1;
      }

      .cls-3 {
        fill: #d7eced;
      }

      .cls-12 {
        clip-path: url(#clippath);
      }

      .cls-4 {
        fill: none;
      }

      .cls-5 {
        fill: #7ac3a5;
      }

      .cls-13 {
        fill: #f6f9fe;
        stroke: #88c16f;
        stroke-miterlimit: 10;
      }

      .cls-14 {
        opacity: .3;
      }

      .cls-6 {
        fill: #c18ebf;
      }

      .cls-7 {
        fill: #0f4899;
        opacity: .1;
      }

      .cls-8 {
        fill: #e3e5f5;
      }

      .cls-9 {
        fill: #fff;
      }

      .cls-10 {
        fill: #cbd0eb;
      }

      .cls-11 {
        fill: #d8afd2;
      }
    </style>
    <clipPath id="clippath">
      <path class="cls-4" d="M147.23,209.67h-42.64l-32.74,152.97c27.15,5.85,54.06,5.85,54.06,5.85,0,0,26.91,0,54.06-5.85l-32.74-152.97Z"/>
    </clipPath>
  </defs>
  <ellipse class="cls-3" cx="251.24" cy="373.45" rx="229.71" ry="17.06"/>
  <g>
    <g>
      <rect class="cls-13" x="130.17" y="102.92" width="291.48" height="261.48"/>
      <rect class="cls-3" x="130.17" y="102.92" width="291.48" height="30.92"/>
    </g>
    <g>
      <path class="cls-5" d="M153.69,118.38c0,3.28-2.66,5.94-5.94,5.94s-5.94-2.66-5.94-5.94,2.66-5.94,5.94-5.94,5.94,2.66,5.94,5.94Z"/>
      <path class="cls-5" d="M173.69,118.38c0,3.28-2.66,5.94-5.94,5.94s-5.94-2.66-5.94-5.94,2.66-5.94,5.94-5.94,5.94,2.66,5.94,5.94Z"/>
      <path class="cls-5" d="M193.69,118.38c0,3.28-2.66,5.94-5.94,5.94s-5.94-2.66-5.94-5.94,2.66-5.94,5.94-5.94,5.94,2.66,5.94,5.94Z"/>
    </g>
  </g>
  <g>
    <g>
      <path class="cls-6" d="M378.94,223.12c1.4-3.54-.58-6.44-4.38-6.44h-140.3c-3.81,0-8.06,2.9-9.46,6.44l-31.1,78.87c-1.4,3.54.58,6.44,4.38,6.44h140.3c3.81,0,8.06-2.9,9.46-6.44l31.1-78.87Z"/>
      <path class="cls-6" d="M186.97,295.26l31.1-78.87c1.4-3.54,5.65-6.44,9.46-6.44h110.14v-6.99c0-3.81-3.11-6.92-6.92-6.92h-49.13c-3.81,0-8.41-2.74-10.22-6.08l-6.69-12.32c-1.82-3.35-6.42-6.08-10.22-6.08h-63.12c-3.81,0-6.92,3.11-6.92,6.92v116.3c0,3.34,2.4,6.15,5.57,6.79-2.9-.61-4.25-3.21-3.03-6.3Z"/>
    </g>
    <path class="cls-9" d="M288.91,238.5c-14.45,0-26.16,11.71-26.16,26.16s11.71,26.16,26.16,26.16,26.16-11.71,26.16-26.16-11.71-26.16-26.16-26.16ZM301.71,273.69l-3.77,3.77-9.03-9.03-9.03,9.03-3.77-3.77,9.03-9.03-9.03-9.03,3.77-3.77,9.03,9.03,9.03-9.03,3.77,3.77-9.03,9.03,9.03,9.03Z"/>
  </g>
  <g>
    <g>
      <g>
        <path class="cls-6" d="M201.76,365.35c0,6.85-30.88,12.39-75.85,12.39s-75.85-5.55-75.85-12.39,30.88-12.39,75.85-12.39,75.85,5.55,75.85,12.39Z"/>
        <path class="cls-11" d="M147.23,209.67h-42.64l-32.74,152.97c27.15,5.85,54.06,5.85,54.06,5.85,0,0,26.91,0,54.06-5.85l-32.74-152.97Z"/>
        <ellipse class="cls-6" cx="125.91" cy="209.67" rx="21.32" ry="3.25"/>
        <g class="cls-12">
          <g>
            <path class="cls-6" d="M124.98,355.91c-43.89,0-73.53-7.34-75.37-7.8l6.11-24.05-3.05,12.02,3.04-12.03c.63.16,63.89,15.66,141.09-.13l4.97,24.31c-28.11,5.75-54.31,7.67-76.78,7.67Z"/>
            <path class="cls-6" d="M124.98,301.93c-43.89,0-73.53-7.34-75.37-7.8l6.11-24.05-3.05,12.02,3.04-12.03c.63.16,63.89,15.66,141.09-.13l4.97,24.31c-28.11,5.75-54.31,7.67-76.78,7.67Z"/>
            <path class="cls-6" d="M124.98,247.95c-43.89,0-73.53-7.34-75.37-7.8l6.11-24.05-3.05,12.02,3.04-12.03c.63.16,63.89,15.66,141.09-.13l4.97,24.31c-28.11,5.75-54.31,7.67-76.78,7.67Z"/>
          </g>
        </g>
      </g>
      <path class="cls-7" d="M152.56,283.47c0,33.26-6.88,63.3-17.96,84.76,10.11-.46,27.68-1.79,45.37-5.6l-32.74-152.97h-7.64c8.11,20.22,12.97,45.88,12.97,73.81Z"/>
    </g>
    <g class="cls-14">
      <path class="cls-9" d="M106.91,233.27c-.78,3.76-1.56,7.52-2.34,11.28-1.87,9.03-3.74,18.06-5.62,27.09-2.28,10.98-4.55,21.95-6.83,32.93-1.96,9.45-3.92,18.89-5.87,28.34-.95,4.57-2.12,9.16-2.86,13.77-.01.06-.03.13-.04.19-.78,3.78,5.11,4.85,5.89,1.08.78-3.76,1.56-7.52,2.34-11.28,1.87-9.03,3.74-18.06,5.62-27.09,2.28-10.98,4.55-21.95,6.83-32.93,1.96-9.45,3.92-18.89,5.87-28.34.95-4.57,2.12-9.16,2.86-13.77.01-.06.03-.13.04-.19.78-3.78-5.11-4.85-5.89-1.08h0Z"/>
    </g>
  </g>
  <g>
    <g>
      <rect class="cls-1" x="262.93" y="343.34" width="147.04" height="9.03" transform="translate(-82.57 105.73) rotate(-15.93)"/>
      <rect class="cls-6" x="341.38" y="332.36" width="67.05" height="9.03" transform="translate(-78.08 115.86) rotate(-15.93)"/>
    </g>
    <g>
      <g>
        <circle class="cls-6" cx="407.15" cy="327.67" r="45.26" transform="translate(-26.28 35.65) rotate(-4.86)"/>
        <circle class="cls-2" cx="407.15" cy="327.67" r="36.43" transform="translate(-57.91 566.12) rotate(-65.97)"/>
      </g>
      <path class="cls-9" d="M434.53,319.85l-4.34,1.24c-3.63-12.71-16.92-20.09-29.62-16.47l-1.24-4.34c15.1-4.31,30.9,4.47,35.21,19.57Z"/>
    </g>
  </g>
  <g>
    <g>
      <polygon class="cls-8" points="373.41 101.28 330.09 88.14 304.04 174.07 371.36 194.47 390.34 131.87 373.41 101.28"/>
      <polygon class="cls-1" points="369.04 135.24 365.94 129.45 352.07 136.87 344.65 123 338.86 126.09 346.28 139.96 332.41 147.38 335.51 153.17 349.38 145.75 356.79 159.62 362.58 156.52 355.17 142.65 369.04 135.24"/>
    </g>
    <g>
      <polygon class="cls-8" points="258.45 42.44 214.47 53.16 235.72 140.39 304.06 123.74 288.58 60.18 258.45 42.44"/>
      <polygon class="cls-1" points="271.95 73.91 266.34 70.5 258.17 83.94 244.73 75.77 241.32 81.37 254.76 89.55 246.58 102.99 252.19 106.4 260.37 92.96 273.8 101.13 277.21 95.52 263.78 87.35 271.95 73.91"/>
    </g>
  </g>
  <g>
    <polygon class="cls-8" points="412.58 50.3 401.4 50.3 401.4 39.12 397.42 39.12 397.42 50.3 386.24 50.3 386.24 54.28 397.42 54.28 397.42 65.46 401.4 65.46 401.4 54.28 412.58 54.28 412.58 50.3"/>
    <polygon class="cls-8" points="437.62 88.77 431.53 88.77 431.53 82.68 429.36 82.68 429.36 88.77 423.27 88.77 423.27 90.93 429.36 90.93 429.36 97.02 431.53 97.02 431.53 90.93 437.62 90.93 437.62 88.77"/>
    <polygon class="cls-8" points="370.41 78.14 363.04 78.14 363.04 70.77 360.41 70.77 360.41 78.14 353.04 78.14 353.04 80.77 360.41 80.77 360.41 88.14 363.04 88.14 363.04 80.77 370.41 80.77 370.41 78.14"/>
    <polygon class="cls-8" points="91.2 76.99 80.02 76.99 80.02 65.81 76.04 65.81 76.04 76.99 64.86 76.99 64.86 80.97 76.04 80.97 76.04 92.15 80.02 92.15 80.02 80.97 91.2 80.97 91.2 76.99"/>
    <polygon class="cls-8" points="140 70.32 133.91 70.32 133.91 64.23 131.74 64.23 131.74 70.32 125.66 70.32 125.66 72.49 131.74 72.49 131.74 78.57 133.91 78.57 133.91 72.49 140 72.49 140 70.32"/>
    <polygon class="cls-8" points="102.92 119.98 95.55 119.98 95.55 112.61 92.92 112.61 92.92 119.98 85.55 119.98 85.55 122.6 92.92 122.6 92.92 129.98 95.55 129.98 95.55 122.6 102.92 122.6 102.92 119.98"/>
  </g>
  <g>
    <path class="cls-10" d="M347.77,31.79c0,1.34-1.09,2.42-2.42,2.42s-2.42-1.09-2.42-2.42,1.08-2.42,2.42-2.42,2.42,1.09,2.42,2.42Z"/>
    <path class="cls-10" d="M457.22,118.94c0,2.53-2.05,4.59-4.59,4.59s-4.59-2.05-4.59-4.59,2.05-4.59,4.59-4.59,4.59,2.05,4.59,4.59Z"/>
    <path class="cls-10" d="M311.93,57.07c0,1.34-1.09,2.42-2.42,2.42s-2.42-1.09-2.42-2.42,1.08-2.42,2.42-2.42,2.42,1.09,2.42,2.42Z"/>
    <path class="cls-10" d="M173.9,31.79c0,2.53-2.05,4.59-4.59,4.59s-4.59-2.05-4.59-4.59,2.05-4.59,4.59-4.59,4.59,2.05,4.59,4.59Z"/>
    <path class="cls-10" d="M191.73,80.45c0,1.34-1.09,2.42-2.42,2.42s-2.42-1.09-2.42-2.42,1.08-2.42,2.42-2.42,2.42,1.09,2.42,2.42Z"/>
    <path class="cls-10" d="M50.11,127.39c0,1.34-1.09,2.42-2.42,2.42s-2.42-1.09-2.42-2.42,1.08-2.42,2.42-2.42,2.42,1.09,2.42,2.42Z"/>
  </g>
</svg>